<svg xmlns="http://www.w3.org/2000/svg" viewBox="68.0 -717.0 5432.0 728.0" width="402.9" height="54.0"><g transform="scale(1,-1)"><path transform="translate(0.00 0)" d="M68 0V706H225V0ZM505 0V706H663V0ZM162 295V431H557V295Z" fill="#2563EB"/><path transform="translate(705.00 0)" d="M68 0V706H225V0Z" fill="#2563EB"/><path transform="translate(973.00 0)" d="M174 0V138H349Q413 138 461.0 163.5Q509 189 535.0 238.0Q561 287 561 354Q561 421 534.5 469.0Q508 517 460.5 543.0Q413 569 349 569H169V706H351Q431 706 498.5 680.5Q566 655 616.5 607.5Q667 560 694.5 495.5Q722 431 722 353Q722 276 694.5 211.0Q667 146 617.0 99.0Q567 52 499.5 26.0Q432 0 353 0ZM68 0V706H225V0Z" fill="#2563EB"/><path transform="translate(1702.00 0)" d="M68 0V706H225V0ZM188 0V136H575V0ZM188 295V426H540V295ZM188 571V706H570V571Z" fill="#2563EB"/><path transform="translate(2292.00 0)" d="M188 257V379H340Q369 379 393.0 391.0Q417 403 431.0 426.0Q445 449 445 482Q445 514 431.0 537.0Q417 560 393.0 572.0Q369 584 340 584H188V706H363Q430 706 484.0 679.0Q538 652 569.5 601.5Q601 551 601 482Q601 413 569.5 362.5Q538 312 484.0 284.5Q430 257 363 257ZM68 0V706H225V0Z" fill="#000000"/><path transform="translate(2895.00 0)" d="M15 0 295 706H437L714 0H548L336 586H393L178 0ZM174 128V256H559V128Z" fill="#000000"/><path transform="translate(3599.00 0)" d="M401 -11Q324 -11 256.5 17.0Q189 45 139.0 94.5Q89 144 60.5 210.5Q32 277 32 354Q32 431 61.0 497.0Q90 563 141.5 612.5Q193 662 262.0 689.5Q331 717 410 717Q501 717 575.5 684.0Q650 651 699 593L592 486Q558 530 512.0 552.0Q466 574 408 574Q346 574 297.0 546.5Q248 519 220.5 469.5Q193 420 193 354Q193 288 220.0 238.0Q247 188 294.0 160.0Q341 132 402 132Q464 132 507.5 155.5Q551 179 574.5 223.5Q598 268 598 332L702 262L387 267V400H758V377Q758 250 712.5 163.5Q667 77 586.5 33.0Q506 -11 401 -11Z" fill="#000000"/><path transform="translate(4359.00 0)" d="M68 0V706H225V0ZM188 0V136H575V0ZM188 295V426H540V295ZM188 571V706H570V571Z" fill="#000000"/><path transform="translate(4949.00 0)" d="M280 -11Q193 -11 130.5 17.5Q68 46 16 104L118 205Q152 166 193.5 144.5Q235 123 290 123Q340 123 367.5 141.0Q395 159 395 191Q395 220 377.0 238.0Q359 256 329.5 269.0Q300 282 264.5 294.0Q229 306 194.0 321.5Q159 337 129.5 360.5Q100 384 82.0 419.5Q64 455 64 509Q64 574 95.5 621.0Q127 668 183.0 692.5Q239 717 312 717Q386 717 447.5 691.0Q509 665 549 620L447 519Q415 552 382.5 568.0Q350 584 309 584Q268 584 244.0 568.5Q220 553 220 524Q220 497 238.0 480.5Q256 464 285.5 452.0Q315 440 350.5 428.0Q386 416 421.0 400.0Q456 384 485.5 359.5Q515 335 533.0 297.5Q551 260 551 205Q551 104 479.0 46.5Q407 -11 280 -11Z" fill="#000000"/></g></svg>